<svg width="94" height="84" viewBox="0 0 94 84" fill="none" xmlns="http://www.w3.org/2000/svg">
<path fill-rule="evenodd" clip-rule="evenodd" d="M47.1709 1.66237C46.1356 2.73882 44.8192 3.65213 43.5124 4.20084C41.6308 4.99097 41.0985 5.05715 36.7148 5.04372C32.9279 5.03258 31.2504 4.86846 28.4831 4.23851C24.7086 3.37925 19.6364 3.20694 17.7578 3.87391C16.924 4.16972 16.7495 4.41147 16.8431 5.14003L16.9587 6.04089L20.4343 5.93737C23.1197 5.85711 24.8703 6.02156 28.1341 6.66101C37.7517 8.54496 43.729 7.92484 47.9524 4.60442C48.6815 4.03115 49.3547 3.67735 49.4484 3.81854C49.9697 4.60606 50.0795 7.1383 49.6792 9.14346C49.3126 10.9802 49.3148 11.5191 49.6913 11.9253C50.2836 12.5641 51.9117 12.5694 53.6004 11.9374C54.323 11.6672 55.0371 11.4461 55.1879 11.4461C55.579 11.4461 54.9607 14.2129 54.0464 16.5535C52.6159 20.2149 49.7773 22.8805 45.7426 24.3503C44.5346 24.7906 42.7957 25.0183 39.8246 25.1254C34.6419 25.3125 30.8919 24.7382 25.1125 22.8719C22.8413 22.1385 20.4892 21.5157 19.8856 21.4879C18.8253 21.4391 18.7913 21.482 18.8813 22.7478C19.2329 27.6773 19.107 29.6841 18.3171 31.7564C17.8704 32.9275 17.179 34.365 16.7802 34.9504C16.0946 35.9567 15.9373 36.015 13.909 36.015C12.7287 36.015 11.2145 36.1864 10.5438 36.3957C9.38665 36.7567 9.26995 36.7193 8.25214 35.6586C6.19604 33.5152 4.32068 30.642 3.58348 28.5045C2.73946 26.0574 2.58799 22.1283 3.25312 19.9171C4.33202 16.3297 7.37592 12.4432 9.62811 11.7776C10.4242 11.5424 10.9997 11.0864 11.2887 10.4617C11.532 9.93589 12.2901 9.1238 12.9728 8.65732C14.3974 7.68471 14.6601 6.37535 13.497 6.04482C12.5348 5.77128 11.6849 6.2227 9.98885 7.90747C9.20848 8.68254 7.89543 9.70101 7.07153 10.1711C5.41202 11.1172 3.47007 13.3287 1.99934 15.9474C-1.72945 22.5873 -0.158834 30.8116 6.01129 36.9568C7.41104 38.3507 7.61043 38.7107 7.28446 39.2562C6.72104 40.1983 6.81141 42.7777 7.44616 43.8764C8.35751 45.4547 10.2567 46.5174 12.5429 46.7287L14.5807 46.9171V51.3972V55.8772L12.5484 56.6313C9.93141 57.6026 7.14251 60.0389 5.87482 62.4611C4.88995 64.3427 4.88519 64.3902 4.77214 72.9232L4.65872 81.4951L5.74824 82.587L6.83775 83.6788H24.4587H42.0797L43.1473 82.6089L44.2148 81.539L44.2126 74.5831C44.2104 67.138 43.9269 65.3405 42.6991 64.9917C41.3151 64.5982 40.7831 65.4978 41.2492 67.444C41.6718 69.2087 41.8178 79.8031 41.4318 80.7037C41.236 81.1607 39.8762 81.2219 29.9074 81.2219H18.6051V75.062V68.9021L17.5489 67.4109C15.747 64.8669 12.0076 63.8264 8.87665 64.9979C7.60824 65.4722 7.59068 65.468 7.83763 64.7522C8.68385 62.3005 11.0202 59.8594 13.3456 58.9972C14.4691 58.5805 14.5086 58.5998 16.6353 60.603C19.5958 63.3917 26.0056 67.9409 28.6265 69.1137C31.1612 70.2478 32.4263 70.3293 33.6892 69.4399C35.2273 68.3566 35.5584 67.1393 35.3429 63.3603C35.123 59.5052 35.1929 59.4541 37.6097 61.7037C38.3034 62.349 39.1346 62.8771 39.4573 62.8771C40.2087 62.8771 40.9221 62.2396 40.9221 61.5677C40.9221 60.8995 38.6743 58.9598 36.4671 57.7232L34.756 56.7647L36.5345 56.3565C38.8606 55.8225 42.1306 54.0483 44.326 52.129C46.084 50.5923 48.9709 46.0503 48.9709 44.8218C48.9709 44.2921 49.2559 44.2047 50.9831 44.2047C52.9554 44.2047 52.9953 44.2233 52.9953 45.1462C52.9953 45.6641 52.7484 46.7146 52.4465 47.4805C52.1447 48.2464 51.8978 49.2004 51.8978 49.6003C51.8978 50.5274 52.9807 51.4116 54.1163 51.4116C56.3125 51.4116 61.8757 47.8566 63.6087 45.346C64.3514 44.2699 64.5098 44.2047 66.379 44.2047H68.3612L68.3817 48.2176C68.4058 52.9005 68.8064 54.2183 70.519 55.2492C71.61 55.9064 72.2147 55.9978 75.4668 55.9978H79.1714L80.809 58.0134C82.699 60.3393 85.7579 62.5495 87.0878 62.5495C88.7099 62.5495 89.3454 61.5255 89.1179 59.2779C88.9016 57.1443 89.0912 55.9978 89.6597 55.9978C89.8573 55.9978 90.586 55.7567 91.2793 55.4622C93.5012 54.5181 93.6596 53.8619 93.5341 46.1237L93.4221 39.2359L92.2273 38.2806C91.0613 37.3483 90.9362 37.3254 87.0139 37.3254H82.9953V28.8569C82.9953 23.3247 82.849 20.0026 82.5735 19.275C81.9182 17.5457 80.8759 16.4106 79.2146 15.6179C77.7669 14.927 77.1907 14.8851 67.7209 14.7789C60.4357 14.6974 57.7532 14.5644 57.7587 14.2849C57.7628 14.0749 57.9204 12.9464 58.1092 11.7769C58.6595 8.36872 57.5037 7.43444 54.4587 8.82537C53.6699 9.18571 52.9357 9.48054 52.827 9.48054C52.7184 9.48054 52.6295 8.4018 52.6295 7.08327C52.6295 4.52023 51.8228 1.49137 50.8909 0.553819C49.9119 -0.430906 48.8915 -0.126906 47.1709 1.66237ZM79.0013 18.5763L80.0685 19.6462V29.4633V39.2804L79.0017 40.3503L77.9348 41.4202L70.5826 41.5211L63.2308 41.6223L61.8124 43.3228C59.7969 45.7394 55.842 48.8282 55.3397 48.3785C55.2435 48.2926 55.3313 47.5762 55.5347 46.7867C56.0399 44.8245 56.0143 42.4527 55.4831 41.9771C55.2168 41.7386 53.922 41.584 52.1904 41.584H49.3368V39.8982C49.3368 38.3481 49.4714 38.0834 51.0091 36.6116C53.3063 34.4125 54.1873 32.501 54.3786 29.2995C54.5008 27.2606 54.3753 26.2726 53.8145 24.8496L53.0934 23.02L54.0559 21.8643C54.5853 21.2288 55.4176 19.945 55.9057 19.0117L56.7936 17.3148L67.3638 17.4107L77.9345 17.5064L79.0013 18.5763ZM31.129 27.0513C34.6664 27.732 42.514 27.8447 44.7431 27.2472C45.5367 27.0346 46.2775 26.9422 46.3895 27.0421C46.7956 27.4047 46.8387 41.9021 46.4385 43.5731C45.1159 49.0955 39.9541 53.4698 33.6954 54.3723C27.3003 55.2945 20.6659 52.1591 17.7874 46.8545C17.1431 45.6674 16.4462 44.5876 16.2387 44.4553C16.0309 44.3229 14.8631 44.2125 13.6437 44.2096C11.9268 44.2057 11.2463 44.0546 10.6298 43.5403C9.56592 42.6529 9.27653 41.4585 9.83336 40.2546C10.4465 38.9289 11.1819 38.6367 13.9163 38.6311C17.2141 38.6249 17.6176 38.4575 18.8985 36.5644C20.7395 33.8431 21.5853 31.2811 21.799 27.7785L21.9918 24.6196L25.0478 25.5444C26.7288 26.0531 29.4651 26.7312 31.129 27.0513ZM51.5352 26.6936C52.0075 28.7298 51.7752 30.6121 50.8053 32.615C49.6481 35.0041 49.3371 34.706 49.3328 31.2025C49.3306 29.4351 49.2318 27.4654 49.1136 26.8253C48.9296 25.8284 49.0218 25.6083 49.7579 25.2915C51.0618 24.73 51.0841 24.7477 51.5352 26.6936ZM57.049 28.6129C56.7984 28.8831 56.7003 29.4063 56.8313 29.7752C57.1306 30.6203 59.1197 30.7219 59.4676 29.9101C59.9904 28.6895 57.9782 27.6101 57.049 28.6129ZM64.2318 28.3564C63.7203 28.814 63.9823 30.1008 64.6521 30.4218C65.6147 30.8831 66.638 30.1506 66.4752 29.1174C66.3845 28.5418 66.0878 28.2896 65.4208 28.2198C64.9101 28.1664 64.3748 28.228 64.2318 28.3564ZM71.3026 28.6286C70.5446 29.4463 70.9982 30.2724 72.2659 30.3828C73.1736 30.4618 73.4729 30.336 73.6649 29.7938C74.1314 28.4779 72.286 27.5676 71.3026 28.6286ZM26.9249 29.6002C24.5004 30.3815 23.7589 31.4839 25.0251 32.4247C25.4904 32.7706 25.8186 32.7483 26.8668 32.3009C28.4363 31.6309 28.9617 31.6224 30.3073 32.2455C31.4454 32.7726 32.3315 32.6399 32.6506 31.895C33.3713 30.2131 29.6498 28.722 26.9249 29.6002ZM39.0929 29.8584C37.3009 30.6764 36.8136 31.6696 37.8329 32.4266C38.3487 32.8103 38.5964 32.7942 39.5264 32.3162C40.8651 31.628 41.7416 31.611 43.1121 32.2455C45.4957 33.3491 46.6126 31.2749 44.2949 30.0494C42.4836 29.0915 40.9006 29.0335 39.0929 29.8584ZM27.8246 34.115C27.2125 34.6631 27.2751 36.8353 27.9168 37.3123C28.6836 37.8823 29.8357 37.4374 30.1079 36.4668C30.6354 34.5841 29.0846 32.9868 27.8246 34.115ZM40.2636 34.115C40.0221 34.3312 39.8246 35.0388 39.8246 35.6874C39.8246 37.4928 40.9829 38.2069 42.1767 37.1383C43.2936 36.1379 42.5692 33.7219 41.1523 33.7219C40.9049 33.7219 40.5051 33.8988 40.2636 34.115ZM90.2758 40.0702C90.5663 40.3837 90.664 42.4642 90.5948 46.8676L90.4953 53.2133L88.8577 53.3771C86.7819 53.5848 86.3008 54.3494 86.2935 57.4542L86.288 59.7296L84.9618 58.6008C84.2323 57.98 83.0531 56.6611 82.3408 55.6702C81.6289 54.6792 80.8671 53.76 80.6487 53.6277C80.4303 53.4953 78.4324 53.385 76.2087 53.382C73.5592 53.3787 72.0146 53.2415 71.727 52.984C71.4318 52.7196 71.288 51.2324 71.288 48.4433V44.2954L74.4958 44.1316C78.5363 43.9256 80.4461 43.1325 81.8337 41.0838L82.8124 39.6391L86.3348 39.629C88.8932 39.6214 89.9714 39.742 90.2758 40.0702ZM39.1767 41.4939C38.9209 41.5761 38.4654 42.0695 38.1643 42.5907C37.4451 43.8365 35.7003 44.6364 34.3027 44.3619C33.6709 44.2374 32.7475 43.6183 32.0729 42.8668C30.7957 41.4438 29.4175 41.1512 29.0378 42.2228C28.6013 43.4535 30.5586 45.7758 32.6228 46.4758C36.1412 47.6696 40.9156 45.4741 40.9207 42.6601C40.9221 41.8913 39.9548 41.2446 39.1767 41.4939ZM74.9319 45.7876C74.239 46.2898 74.1812 46.4847 74.5448 47.093C75.2403 48.2566 77.1417 47.9238 77.1417 46.638C77.1417 45.5019 75.9556 45.0453 74.9319 45.7876ZM80.3034 45.574C79.1597 46.1473 79.8223 47.8081 81.1946 47.8081C82.0617 47.8081 82.7308 46.9721 82.4645 46.2213C82.1974 45.4679 81.1448 45.1524 80.3034 45.574ZM85.002 46.1859C84.5088 47.5775 86.6235 48.365 87.4979 47.1156C88.0891 46.2704 87.5352 45.515 86.3242 45.515C85.5526 45.515 85.171 45.7086 85.002 46.1859ZM22.0423 54.6458C24.2381 55.8759 26.5423 56.5822 29.4047 56.9022L31.5808 57.1456L32.2115 60.4208C33.2023 65.5679 33.0431 67.4633 31.6203 67.4633C29.8653 67.4633 24.9278 64.2821 19.977 59.9616L17.1417 57.4873V54.2174V50.9477L18.6965 52.2951C19.5519 53.0361 21.0574 54.0938 22.0423 54.6458ZM13.3038 67.2799C15.3834 68.0579 16.0412 69.4196 16.0426 72.9504L16.0441 75.9805H11.6538H7.2636L7.26434 73.1142C7.2647 69.6889 7.91336 68.2367 9.82458 67.3821C11.378 66.6869 11.6948 66.6777 13.3038 67.2799ZM16.0441 79.9116V81.2219H12.0929C7.79629 81.2219 7.2636 81.0342 7.2636 79.5185V78.6012H11.6538H16.0441V79.9116Z" fill="white"/>
</svg>
