<svg width="107" height="53" viewBox="0 0 107 53" fill="none" xmlns="http://www.w3.org/2000/svg">
<path d="M2.376 29.528C2.328 28.76 2.28 27.716 2.232 26.396C2.184 25.076 2.16 23.72 2.16 22.328C2.16 21.536 2.16 20.72 2.16 19.88C2.184 19.016 2.208 18.14 2.232 17.252C2.28 15.476 2.388 14.084 2.556 13.076C2.748 12.068 3.108 11.312 3.636 10.808C4.188 10.304 4.956 9.992 5.94 9.872C6.924 9.752 8.232 9.692 9.864 9.692C9.888 9.692 10.14 9.692 10.62 9.692C11.124 9.692 11.724 9.704 12.42 9.728C13.116 9.728 13.836 9.74 14.58 9.764C15.348 9.788 15.984 9.812 16.488 9.836C17.016 9.884 17.436 9.956 17.748 10.052C18.084 10.124 18.336 10.232 18.504 10.376C18.672 10.496 18.78 10.652 18.828 10.844C18.876 11.012 18.9 11.204 18.9 11.42C18.9 11.972 18.744 12.38 18.432 12.644C18.12 12.884 17.484 13.04 16.524 13.112C16.044 13.16 15.336 13.196 14.4 13.22C13.488 13.22 12.552 13.22 11.592 13.22C10.632 13.22 9.768 13.232 9 13.256C8.232 13.256 7.752 13.256 7.56 13.256C6.936 13.28 6.492 13.424 6.228 13.688C5.988 13.928 5.868 14.516 5.868 15.452C5.868 15.668 5.88 16.196 5.904 17.036C5.952 17.852 5.976 19.004 5.976 20.492H8.964C10.236 20.492 11.268 20.516 12.06 20.564C12.876 20.588 13.5 20.66 13.932 20.78C14.388 20.9 14.7 21.092 14.868 21.356C15.036 21.62 15.12 21.968 15.12 22.4C15.12 22.616 15.096 22.82 15.048 23.012C15.024 23.18 14.928 23.336 14.76 23.48C14.592 23.6 14.352 23.708 14.04 23.804C13.728 23.876 13.284 23.936 12.708 23.984C12.012 24.032 11.352 24.068 10.728 24.092C10.128 24.092 9.528 24.092 8.928 24.092H5.904C5.904 24.452 5.904 24.884 5.904 25.388C5.904 25.892 5.904 26.408 5.904 26.936C5.904 27.464 5.904 27.98 5.904 28.484C5.928 28.988 5.952 29.396 5.976 29.708C6 30.092 6.048 30.416 6.12 30.68C6.216 30.944 6.372 31.16 6.588 31.328C6.828 31.496 7.164 31.616 7.596 31.688C8.052 31.76 8.652 31.796 9.396 31.796H17.136C17.976 31.796 18.504 31.952 18.72 32.264C18.936 32.576 19.044 32.996 19.044 33.524C19.044 33.956 18.948 34.292 18.756 34.532C18.564 34.748 18.096 34.904 17.352 35C16.632 35.12 15.54 35.192 14.076 35.216C12.636 35.24 10.644 35.252 8.1 35.252C7.02 35.252 6.132 35.156 5.436 34.964C4.74 34.772 4.176 34.448 3.744 33.992C3.312 33.536 2.988 32.948 2.772 32.228C2.58 31.484 2.448 30.584 2.376 29.528ZM25.8694 24.956C25.8694 25.724 25.8694 26.408 25.8694 27.008C25.8694 27.584 25.8574 28.136 25.8334 28.664C25.8334 29.192 25.8214 29.72 25.7974 30.248C25.7734 30.776 25.7494 31.364 25.7254 32.012C27.3814 31.82 28.6774 31.664 29.6134 31.544C30.5494 31.424 31.2814 31.328 31.8094 31.256C32.3614 31.184 32.7814 31.136 33.0694 31.112C33.3814 31.088 33.7414 31.076 34.1494 31.076C35.2054 31.076 35.7334 31.592 35.7334 32.624C35.7334 33.032 35.5174 33.38 35.0854 33.668C34.6774 33.956 34.1494 34.208 33.5014 34.424C32.8774 34.616 32.1694 34.784 31.3774 34.928C30.6094 35.048 29.8534 35.132 29.1094 35.18C28.3894 35.252 27.7294 35.3 27.1294 35.324C26.5534 35.348 26.1454 35.36 25.9054 35.36C25.0414 35.36 24.3694 35.3 23.8894 35.18C23.4094 35.084 23.0494 34.772 22.8094 34.244C22.5694 33.692 22.4134 32.864 22.3414 31.76C22.2934 30.656 22.2694 29.096 22.2694 27.08C22.2694 25.136 22.2694 23.408 22.2694 21.896C22.2694 20.384 22.2814 19.028 22.3054 17.828C22.3294 16.628 22.3414 15.56 22.3414 14.624C22.3654 13.688 22.4014 12.836 22.4494 12.068C22.4974 11.084 22.6654 10.448 22.9534 10.16C23.2414 9.848 23.6014 9.692 24.0334 9.692C24.2734 9.692 24.4774 9.716 24.6454 9.764C24.8374 9.788 25.0054 9.884 25.1494 10.052C25.2934 10.22 25.4014 10.46 25.4734 10.772C25.5694 11.084 25.6294 11.528 25.6534 12.104C25.7494 14.216 25.8094 16.304 25.8334 18.368C25.8574 20.432 25.8694 22.628 25.8694 24.956Z" fill="#BEBEC3"/>
<path d="M45.205 35C43.861 35 42.781 34.892 41.965 34.676C41.149 34.46 40.513 34.16 40.057 33.776C39.625 33.368 39.325 32.876 39.157 32.3C39.013 31.724 38.905 31.076 38.833 30.356C38.761 29.516 38.701 28.412 38.653 27.044C38.629 25.652 38.617 24.212 38.617 22.724C38.617 22.004 38.617 21.248 38.617 20.456C38.641 19.64 38.653 18.848 38.653 18.08C38.677 17.288 38.701 16.556 38.725 15.884C38.749 15.212 38.785 14.636 38.833 14.156C38.905 13.412 39.025 12.74 39.193 12.14C39.361 11.54 39.673 11.024 40.129 10.592C40.609 10.16 41.269 9.836 42.109 9.62C42.973 9.38 44.113 9.26 45.529 9.26C48.745 9.26 51.145 9.86 52.729 11.06C54.337 12.236 55.141 13.916 55.141 16.1C55.141 17.228 54.889 18.272 54.385 19.232C53.905 20.192 53.065 20.912 51.865 21.392C52.537 21.512 53.149 21.764 53.701 22.148C54.253 22.532 54.721 23 55.105 23.552C55.513 24.08 55.813 24.68 56.005 25.352C56.221 26 56.329 26.66 56.329 27.332C56.329 28.196 56.149 29.084 55.789 29.996C55.429 30.884 54.817 31.7 53.953 32.444C53.089 33.188 51.937 33.8 50.497 34.28C49.081 34.76 47.317 35 45.205 35ZM52.729 27.224C52.729 26.36 52.525 25.664 52.117 25.136C51.733 24.608 51.229 24.212 50.605 23.948C49.981 23.66 49.285 23.468 48.517 23.372C47.749 23.276 46.981 23.228 46.213 23.228C45.613 23.228 44.989 23.228 44.341 23.228C43.693 23.228 43.093 23.24 42.541 23.264C42.517 23.768 42.493 24.284 42.469 24.812C42.445 25.34 42.421 25.844 42.397 26.324C42.397 26.78 42.397 27.188 42.397 27.548C42.397 27.884 42.397 28.124 42.397 28.268C42.397 28.916 42.445 29.456 42.541 29.888C42.637 30.32 42.817 30.668 43.081 30.932C43.345 31.196 43.717 31.388 44.197 31.508C44.701 31.604 45.337 31.652 46.105 31.652C48.217 31.652 49.849 31.28 51.001 30.536C52.153 29.792 52.729 28.688 52.729 27.224ZM46.069 12.68C45.277 12.68 44.629 12.752 44.125 12.896C43.645 13.016 43.273 13.184 43.009 13.4C42.769 13.616 42.601 13.88 42.505 14.192C42.433 14.504 42.397 14.84 42.397 15.2V20.24C42.733 20.264 43.081 20.276 43.441 20.276C43.825 20.276 44.185 20.276 44.521 20.276C45.385 20.276 46.225 20.216 47.041 20.096C47.881 19.976 48.637 19.772 49.309 19.484C49.981 19.196 50.521 18.8 50.929 18.296C51.337 17.792 51.541 17.144 51.541 16.352C51.541 15.272 51.097 14.396 50.209 13.724C49.345 13.028 47.965 12.68 46.069 12.68ZM68.2462 35.612C65.5102 35.612 63.5062 34.868 62.2342 33.38C61.7302 32.804 61.2982 32.072 60.9382 31.184C60.6022 30.272 60.3262 29.096 60.1102 27.656C59.9182 26.216 59.7742 24.44 59.6782 22.328C59.6062 20.192 59.5702 17.6 59.5702 14.552C59.5702 13.568 59.5942 12.764 59.6422 12.14C59.6902 11.492 59.7862 10.988 59.9302 10.628C60.0742 10.244 60.2542 9.98 60.4702 9.836C60.7102 9.692 61.0102 9.62 61.3702 9.62C62.0662 9.62 62.5582 9.932 62.8462 10.556C63.1342 11.18 63.2782 12.26 63.2782 13.796C63.2782 14.324 63.2662 14.792 63.2422 15.2C63.2422 15.608 63.2422 16.028 63.2422 16.46C63.2422 16.868 63.2302 17.324 63.2062 17.828C63.2062 18.332 63.2062 18.944 63.2062 19.664C63.2062 22.064 63.2782 24.056 63.4222 25.64C63.5902 27.224 63.8662 28.496 64.2502 29.456C64.6342 30.392 65.1502 31.052 65.7982 31.436C66.4702 31.82 67.2982 32.012 68.2822 32.012C69.3142 32.012 70.1662 31.808 70.8382 31.4C71.5342 30.968 72.0862 30.26 72.4942 29.276C72.9022 28.268 73.1902 26.936 73.3582 25.28C73.5502 23.624 73.6462 21.56 73.6462 19.088C73.6462 18.008 73.6342 17.084 73.6102 16.316C73.6102 15.548 73.6102 14.852 73.6102 14.228C73.6102 13.34 73.6342 12.596 73.6822 11.996C73.7542 11.396 73.8502 10.928 73.9702 10.592C74.1142 10.232 74.3062 9.98 74.5462 9.836C74.7862 9.692 75.0862 9.62 75.4462 9.62C75.8062 9.62 76.1062 9.692 76.3462 9.836C76.5862 9.98 76.7782 10.232 76.9222 10.592C77.0662 10.952 77.1622 11.456 77.2102 12.104C77.2582 12.728 77.2822 13.544 77.2822 14.552C77.2822 18.776 77.1502 22.256 76.8862 24.992C76.6222 27.704 76.1542 29.852 75.4822 31.436C74.8102 32.996 73.8862 34.088 72.7102 34.712C71.5582 35.312 70.0702 35.612 68.2462 35.612ZM89.3073 9.584C89.9793 9.584 90.7473 9.644 91.6113 9.764C92.4993 9.86 93.3273 10.052 94.0953 10.34C94.8633 10.604 95.5113 10.964 96.0393 11.42C96.5673 11.852 96.8313 12.392 96.8313 13.04C96.8313 13.424 96.7233 13.748 96.5073 14.012C96.2913 14.276 95.9433 14.408 95.4633 14.408C95.1033 14.408 94.7313 14.336 94.3473 14.192C93.9873 14.048 93.5673 13.904 93.0873 13.76C92.6313 13.592 92.0913 13.436 91.4673 13.292C90.8673 13.148 90.1593 13.076 89.3433 13.076C87.7593 13.076 86.5833 13.364 85.8153 13.94C85.0713 14.492 84.6993 15.26 84.6993 16.244C84.6993 16.916 84.8673 17.48 85.2033 17.936C85.5393 18.392 85.9833 18.788 86.5353 19.124C87.1113 19.436 87.7473 19.7 88.4433 19.916C89.1633 20.132 89.8953 20.336 90.6393 20.528C91.4793 20.744 92.3073 21.008 93.1233 21.32C93.9633 21.632 94.7073 22.04 95.3553 22.544C96.0033 23.048 96.5193 23.684 96.9033 24.452C97.3113 25.22 97.5153 26.192 97.5153 27.368C97.5153 28.592 97.2873 29.696 96.8313 30.68C96.3753 31.64 95.7513 32.468 94.9593 33.164C94.1673 33.836 93.2193 34.364 92.1153 34.748C91.0113 35.108 89.8113 35.288 88.5153 35.288C87.7953 35.288 86.9553 35.216 85.9953 35.072C85.0353 34.952 84.1233 34.736 83.2593 34.424C82.3953 34.088 81.6633 33.656 81.0633 33.128C80.4633 32.576 80.1633 31.904 80.1633 31.112C80.1633 30.632 80.2833 30.248 80.5233 29.96C80.7873 29.672 81.1713 29.528 81.6753 29.528C82.0833 29.528 82.4193 29.612 82.6833 29.78C82.9473 29.924 83.1753 30.092 83.3673 30.284C84.0873 30.908 84.9033 31.328 85.8153 31.544C86.7273 31.76 87.6633 31.868 88.6233 31.868C89.1753 31.868 89.7513 31.832 90.3513 31.76C90.9753 31.664 91.5393 31.484 92.0433 31.22C92.5473 30.956 92.9673 30.584 93.3033 30.104C93.6393 29.6 93.8073 28.928 93.8073 28.088C93.8073 27.32 93.6513 26.696 93.3393 26.216C93.0513 25.712 92.6553 25.292 92.1513 24.956C91.6473 24.62 91.0473 24.344 90.3513 24.128C89.6793 23.912 88.9473 23.696 88.1553 23.48C87.2673 23.24 86.3913 22.976 85.5273 22.688C84.6633 22.4 83.8953 22.016 83.2233 21.536C82.5513 21.032 81.9993 20.408 81.5673 19.664C81.1593 18.896 80.9553 17.924 80.9553 16.748C80.9553 15.572 81.1713 14.54 81.6033 13.652C82.0353 12.764 82.6233 12.02 83.3673 11.42C84.1113 10.82 84.9873 10.364 85.9953 10.052C87.0273 9.74 88.1313 9.584 89.3073 9.584Z" fill="#DEAB14"/>
<path d="M50.8203 41.5303C51.1132 41.2374 51.1132 40.7626 50.8203 40.4697L46.0474 35.6967C45.7545 35.4038 45.2796 35.4038 44.9867 35.6967C44.6938 35.9896 44.6938 36.4645 44.9867 36.7574L49.2293 41L44.9867 45.2426C44.6938 45.5355 44.6938 46.0104 44.9867 46.3033C45.2796 46.5962 45.7545 46.5962 46.0474 46.3033L50.8203 41.5303ZM0 41.75H50.29V40.25H0L0 41.75Z" fill="#DEAB14"/>
<path d="M64.916 39.04C65.468 39.04 65.972 39.256 66.428 39.688C66.908 40.12 67.148 40.636 67.148 41.236C67.148 41.812 66.908 42.316 66.428 42.748C65.948 43.156 65.408 43.36 64.808 43.36C64.304 43.36 63.824 43.156 63.368 42.748C62.936 42.316 62.72 41.788 62.72 41.164C62.72 40.588 62.936 40.096 63.368 39.688C63.824 39.256 64.34 39.04 64.916 39.04ZM78.3105 39.04C78.8625 39.04 79.3665 39.256 79.8225 39.688C80.3025 40.12 80.5425 40.636 80.5425 41.236C80.5425 41.812 80.3025 42.316 79.8225 42.748C79.3425 43.156 78.8025 43.36 78.2025 43.36C77.6985 43.36 77.2185 43.156 76.7625 42.748C76.3305 42.316 76.1145 41.788 76.1145 41.164C76.1145 40.588 76.3305 40.096 76.7625 39.688C77.2185 39.256 77.7345 39.04 78.3105 39.04ZM91.7051 39.04C92.2571 39.04 92.7611 39.256 93.2171 39.688C93.6971 40.12 93.9371 40.636 93.9371 41.236C93.9371 41.812 93.6971 42.316 93.2171 42.748C92.7371 43.156 92.1971 43.36 91.5971 43.36C91.0931 43.36 90.6131 43.156 90.1571 42.748C89.7251 42.316 89.5091 41.788 89.5091 41.164C89.5091 40.588 89.7251 40.096 90.1571 39.688C90.6131 39.256 91.1291 39.04 91.7051 39.04Z" fill="#929398"/>
</svg>
