<svg width="107" height="53" viewBox="0 0 107 53" fill="none" xmlns="http://www.w3.org/2000/svg">
<path d="M13.14 9.512C13.932 9.512 14.748 9.584 15.588 9.728C16.428 9.872 17.196 10.088 17.892 10.376C18.588 10.64 19.164 10.976 19.62 11.384C20.076 11.792 20.304 12.26 20.304 12.788C20.304 13.34 20.16 13.76 19.872 14.048C19.584 14.336 19.224 14.48 18.792 14.48C18.384 14.48 18 14.408 17.64 14.264C17.304 14.12 16.92 13.964 16.488 13.796C16.056 13.628 15.54 13.472 14.94 13.328C14.34 13.184 13.584 13.112 12.672 13.112C11.664 13.112 10.716 13.352 9.828 13.832C8.964 14.288 8.196 14.936 7.524 15.776C6.852 16.592 6.324 17.564 5.94 18.692C5.556 19.82 5.364 21.044 5.364 22.364C5.364 23.972 5.568 25.364 5.976 26.54C6.384 27.716 6.912 28.688 7.56 29.456C8.232 30.224 8.976 30.8 9.792 31.184C10.632 31.544 11.472 31.724 12.312 31.724C13.68 31.724 14.76 31.532 15.552 31.148C16.368 30.74 17.016 30.224 17.496 29.6C17.52 29.096 17.532 28.496 17.532 27.8C17.532 27.104 17.532 26.348 17.532 25.532C17.532 25.22 17.508 24.98 17.46 24.812C17.412 24.62 17.292 24.476 17.1 24.38C16.908 24.284 16.62 24.224 16.236 24.2C15.876 24.176 15.384 24.164 14.76 24.164C13.992 24.164 13.368 24.068 12.888 23.876C12.408 23.66 12.168 23.216 12.168 22.544C12.168 22.064 12.288 21.68 12.528 21.392C12.792 21.08 13.32 20.9 14.112 20.852C14.256 20.852 14.484 20.852 14.796 20.852C15.132 20.828 15.48 20.816 15.84 20.816C16.224 20.816 16.596 20.816 16.956 20.816C17.316 20.816 17.604 20.816 17.82 20.816C18.54 20.816 19.116 20.888 19.548 21.032C19.98 21.152 20.364 21.44 20.7 21.896C20.868 22.136 20.964 22.556 20.988 23.156C21.036 23.756 21.06 24.452 21.06 25.244V34.532C21.06 35.18 20.88 35.66 20.52 35.972C20.184 36.284 19.788 36.44 19.332 36.44C18.78 36.44 18.324 36.296 17.964 36.008C17.628 35.744 17.46 35.312 17.46 34.712V33.308C16.836 34.028 16.092 34.544 15.228 34.856C14.388 35.168 13.32 35.324 12.024 35.324C10.704 35.324 9.408 35.06 8.136 34.532C6.864 34.004 5.736 33.224 4.752 32.192C3.768 31.136 2.964 29.828 2.34 28.268C1.74 26.684 1.44 24.848 1.44 22.76C1.44 20.672 1.74 18.812 2.34 17.18C2.964 15.548 3.804 14.168 4.86 13.04C5.916 11.888 7.152 11.012 8.568 10.412C9.984 9.812 11.508 9.512 13.14 9.512ZM33.3636 16.748C34.7316 16.748 35.9556 16.964 37.0356 17.396C38.1156 17.804 39.0276 18.392 39.7716 19.16C40.5396 19.928 41.1276 20.864 41.5356 21.968C41.9436 23.072 42.1476 24.308 42.1476 25.676C42.1476 27.188 41.9076 28.544 41.4276 29.744C40.9716 30.944 40.3236 31.964 39.4836 32.804C38.6676 33.644 37.6836 34.292 36.5316 34.748C35.4036 35.204 34.1676 35.432 32.8236 35.432C31.3596 35.432 30.0636 35.18 28.9356 34.676C27.8316 34.172 26.8956 33.488 26.1276 32.624C25.3836 31.76 24.8196 30.764 24.4356 29.636C24.0516 28.508 23.8596 27.32 23.8596 26.072C23.8596 24.704 24.0756 23.456 24.5076 22.328C24.9636 21.176 25.5996 20.192 26.4156 19.376C27.2556 18.536 28.2636 17.888 29.4396 17.432C30.6156 16.976 31.9236 16.748 33.3636 16.748ZM32.9676 32.12C33.9516 32.12 34.7916 31.952 35.4876 31.616C36.1836 31.256 36.7476 30.788 37.1796 30.212C37.6356 29.636 37.9596 28.988 38.1516 28.268C38.3676 27.524 38.4756 26.756 38.4756 25.964C38.4756 25.148 38.3676 24.392 38.1516 23.696C37.9596 22.976 37.6476 22.352 37.2156 21.824C36.8076 21.296 36.2676 20.888 35.5956 20.6C34.9476 20.288 34.1676 20.132 33.2556 20.132C32.3196 20.132 31.5036 20.288 30.8076 20.6C30.1116 20.912 29.5236 21.344 29.0436 21.896C28.5876 22.424 28.2396 23.06 27.9996 23.804C27.7596 24.548 27.6396 25.352 27.6396 26.216C27.6396 27.968 28.0836 29.396 28.9716 30.5C29.8836 31.58 31.2156 32.12 32.9676 32.12Z" fill="#BEBEC3"/>
<path d="M51.9199 35C50.5759 35 49.4959 34.892 48.6799 34.676C47.8639 34.46 47.2279 34.16 46.7719 33.776C46.3399 33.368 46.0399 32.876 45.8719 32.3C45.7279 31.724 45.6199 31.076 45.5479 30.356C45.4759 29.516 45.4159 28.412 45.3679 27.044C45.3439 25.652 45.3319 24.212 45.3319 22.724C45.3319 22.004 45.3319 21.248 45.3319 20.456C45.3559 19.64 45.3679 18.848 45.3679 18.08C45.3919 17.288 45.4159 16.556 45.4399 15.884C45.4639 15.212 45.4999 14.636 45.5479 14.156C45.6199 13.412 45.7399 12.74 45.9079 12.14C46.0759 11.54 46.3879 11.024 46.8439 10.592C47.3239 10.16 47.9839 9.836 48.8239 9.62C49.6879 9.38 50.8279 9.26 52.2439 9.26C55.4599 9.26 57.8599 9.86 59.4439 11.06C61.0519 12.236 61.8559 13.916 61.8559 16.1C61.8559 17.228 61.6039 18.272 61.0999 19.232C60.6199 20.192 59.7799 20.912 58.5799 21.392C59.2519 21.512 59.8639 21.764 60.4159 22.148C60.9679 22.532 61.4359 23 61.8199 23.552C62.2279 24.08 62.5279 24.68 62.7199 25.352C62.9359 26 63.0439 26.66 63.0439 27.332C63.0439 28.196 62.8639 29.084 62.5039 29.996C62.1439 30.884 61.5319 31.7 60.6679 32.444C59.8039 33.188 58.6519 33.8 57.2119 34.28C55.7959 34.76 54.0319 35 51.9199 35ZM59.4439 27.224C59.4439 26.36 59.2399 25.664 58.8319 25.136C58.4479 24.608 57.9439 24.212 57.3199 23.948C56.6959 23.66 55.9999 23.468 55.2319 23.372C54.4639 23.276 53.6959 23.228 52.9279 23.228C52.3279 23.228 51.7039 23.228 51.0559 23.228C50.4079 23.228 49.8079 23.24 49.2559 23.264C49.2319 23.768 49.2079 24.284 49.1839 24.812C49.1599 25.34 49.1359 25.844 49.1119 26.324C49.1119 26.78 49.1119 27.188 49.1119 27.548C49.1119 27.884 49.1119 28.124 49.1119 28.268C49.1119 28.916 49.1599 29.456 49.2559 29.888C49.3519 30.32 49.5319 30.668 49.7959 30.932C50.0599 31.196 50.4319 31.388 50.9119 31.508C51.4159 31.604 52.0519 31.652 52.8199 31.652C54.9319 31.652 56.5639 31.28 57.7159 30.536C58.8679 29.792 59.4439 28.688 59.4439 27.224ZM52.7839 12.68C51.9919 12.68 51.3439 12.752 50.8399 12.896C50.3599 13.016 49.9879 13.184 49.7239 13.4C49.4839 13.616 49.3159 13.88 49.2199 14.192C49.1479 14.504 49.1119 14.84 49.1119 15.2V20.24C49.4479 20.264 49.7959 20.276 50.1559 20.276C50.5399 20.276 50.8999 20.276 51.2359 20.276C52.0999 20.276 52.9399 20.216 53.7559 20.096C54.5959 19.976 55.3519 19.772 56.0239 19.484C56.6959 19.196 57.2359 18.8 57.6439 18.296C58.0519 17.792 58.2559 17.144 58.2559 16.352C58.2559 15.272 57.8119 14.396 56.9239 13.724C56.0599 13.028 54.6799 12.68 52.7839 12.68ZM74.961 35.612C72.225 35.612 70.221 34.868 68.949 33.38C68.445 32.804 68.013 32.072 67.653 31.184C67.317 30.272 67.041 29.096 66.825 27.656C66.633 26.216 66.489 24.44 66.393 22.328C66.321 20.192 66.285 17.6 66.285 14.552C66.285 13.568 66.309 12.764 66.357 12.14C66.405 11.492 66.501 10.988 66.645 10.628C66.789 10.244 66.969 9.98 67.185 9.836C67.425 9.692 67.725 9.62 68.085 9.62C68.781 9.62 69.273 9.932 69.561 10.556C69.849 11.18 69.993 12.26 69.993 13.796C69.993 14.324 69.981 14.792 69.957 15.2C69.957 15.608 69.957 16.028 69.957 16.46C69.957 16.868 69.945 17.324 69.921 17.828C69.921 18.332 69.921 18.944 69.921 19.664C69.921 22.064 69.993 24.056 70.137 25.64C70.305 27.224 70.581 28.496 70.965 29.456C71.349 30.392 71.865 31.052 72.513 31.436C73.185 31.82 74.013 32.012 74.997 32.012C76.029 32.012 76.881 31.808 77.553 31.4C78.249 30.968 78.801 30.26 79.209 29.276C79.617 28.268 79.905 26.936 80.073 25.28C80.265 23.624 80.361 21.56 80.361 19.088C80.361 18.008 80.349 17.084 80.325 16.316C80.325 15.548 80.325 14.852 80.325 14.228C80.325 13.34 80.349 12.596 80.397 11.996C80.469 11.396 80.565 10.928 80.685 10.592C80.829 10.232 81.021 9.98 81.261 9.836C81.501 9.692 81.801 9.62 82.161 9.62C82.521 9.62 82.821 9.692 83.061 9.836C83.301 9.98 83.493 10.232 83.637 10.592C83.781 10.952 83.877 11.456 83.925 12.104C83.973 12.728 83.997 13.544 83.997 14.552C83.997 18.776 83.865 22.256 83.601 24.992C83.337 27.704 82.869 29.852 82.197 31.436C81.525 32.996 80.601 34.088 79.425 34.712C78.273 35.312 76.785 35.612 74.961 35.612ZM96.0221 9.584C96.6941 9.584 97.4621 9.644 98.3261 9.764C99.2141 9.86 100.042 10.052 100.81 10.34C101.578 10.604 102.226 10.964 102.754 11.42C103.282 11.852 103.546 12.392 103.546 13.04C103.546 13.424 103.438 13.748 103.222 14.012C103.006 14.276 102.658 14.408 102.178 14.408C101.818 14.408 101.446 14.336 101.062 14.192C100.702 14.048 100.282 13.904 99.8021 13.76C99.3461 13.592 98.8061 13.436 98.1821 13.292C97.5821 13.148 96.8741 13.076 96.0581 13.076C94.4741 13.076 93.2981 13.364 92.5301 13.94C91.7861 14.492 91.4141 15.26 91.4141 16.244C91.4141 16.916 91.5821 17.48 91.9181 17.936C92.2541 18.392 92.6981 18.788 93.2501 19.124C93.8261 19.436 94.4621 19.7 95.1581 19.916C95.8781 20.132 96.6101 20.336 97.3541 20.528C98.1941 20.744 99.0221 21.008 99.8381 21.32C100.678 21.632 101.422 22.04 102.07 22.544C102.718 23.048 103.234 23.684 103.618 24.452C104.026 25.22 104.23 26.192 104.23 27.368C104.23 28.592 104.002 29.696 103.546 30.68C103.09 31.64 102.466 32.468 101.674 33.164C100.882 33.836 99.9341 34.364 98.8301 34.748C97.7261 35.108 96.5261 35.288 95.2301 35.288C94.5101 35.288 93.6701 35.216 92.7101 35.072C91.7501 34.952 90.8381 34.736 89.9741 34.424C89.1101 34.088 88.3781 33.656 87.7781 33.128C87.1781 32.576 86.8781 31.904 86.8781 31.112C86.8781 30.632 86.9981 30.248 87.2381 29.96C87.5021 29.672 87.8861 29.528 88.3901 29.528C88.7981 29.528 89.1341 29.612 89.3981 29.78C89.6621 29.924 89.8901 30.092 90.0821 30.284C90.8021 30.908 91.6181 31.328 92.5301 31.544C93.4421 31.76 94.3781 31.868 95.3381 31.868C95.8901 31.868 96.4661 31.832 97.0661 31.76C97.6901 31.664 98.2541 31.484 98.7581 31.22C99.2621 30.956 99.6821 30.584 100.018 30.104C100.354 29.6 100.522 28.928 100.522 28.088C100.522 27.32 100.366 26.696 100.054 26.216C99.7661 25.712 99.3701 25.292 98.8661 24.956C98.3621 24.62 97.7621 24.344 97.0661 24.128C96.3941 23.912 95.6621 23.696 94.8701 23.48C93.9821 23.24 93.1061 22.976 92.2421 22.688C91.3781 22.4 90.6101 22.016 89.9381 21.536C89.2661 21.032 88.7141 20.408 88.2821 19.664C87.8741 18.896 87.6701 17.924 87.6701 16.748C87.6701 15.572 87.8861 14.54 88.3181 13.652C88.7501 12.764 89.3381 12.02 90.0821 11.42C90.8261 10.82 91.7021 10.364 92.7101 10.052C93.7421 9.74 94.8461 9.584 96.0221 9.584Z" fill="#DEAB14"/>
<path d="M47.5303 41.5303C47.8232 41.2374 47.8232 40.7626 47.5303 40.4697L42.7574 35.6967C42.4645 35.4038 41.9896 35.4038 41.6967 35.6967C41.4038 35.9896 41.4038 36.4645 41.6967 36.7574L45.9393 41L41.6967 45.2426C41.4038 45.5355 41.4038 46.0104 41.6967 46.3033C41.9896 46.5962 42.4645 46.5962 42.7574 46.3033L47.5303 41.5303ZM0 41.75H47V40.25H0L0 41.75Z" fill="#DEAB14"/>
<path d="M66.916 39.04C67.468 39.04 67.972 39.256 68.428 39.688C68.908 40.12 69.148 40.636 69.148 41.236C69.148 41.812 68.908 42.316 68.428 42.748C67.948 43.156 67.408 43.36 66.808 43.36C66.304 43.36 65.824 43.156 65.368 42.748C64.936 42.316 64.72 41.788 64.72 41.164C64.72 40.588 64.936 40.096 65.368 39.688C65.824 39.256 66.34 39.04 66.916 39.04ZM80.3105 39.04C80.8625 39.04 81.3665 39.256 81.8225 39.688C82.3025 40.12 82.5425 40.636 82.5425 41.236C82.5425 41.812 82.3025 42.316 81.8225 42.748C81.3425 43.156 80.8025 43.36 80.2025 43.36C79.6985 43.36 79.2185 43.156 78.7625 42.748C78.3305 42.316 78.1145 41.788 78.1145 41.164C78.1145 40.588 78.3305 40.096 78.7625 39.688C79.2185 39.256 79.7345 39.04 80.3105 39.04ZM93.7051 39.04C94.2571 39.04 94.7611 39.256 95.2171 39.688C95.6971 40.12 95.9371 40.636 95.9371 41.236C95.9371 41.812 95.6971 42.316 95.2171 42.748C94.7371 43.156 94.1971 43.36 93.5971 43.36C93.0931 43.36 92.6131 43.156 92.1571 42.748C91.7251 42.316 91.5091 41.788 91.5091 41.164C91.5091 40.588 91.7251 40.096 92.1571 39.688C92.6131 39.256 93.1291 39.04 93.7051 39.04Z" fill="#BEBEC3"/>
</svg>
