<svg width="81" height="81" viewBox="0 0 81 81" fill="none" xmlns="http://www.w3.org/2000/svg">
<path d="M78.1684 30.5979L70.5296 28.0517L74.1267 20.8575C74.4914 20.1045 74.6133 19.2569 74.4758 18.4316C74.3382 17.6063 73.948 16.844 73.3588 16.25L64.7501 7.64124C64.1528 7.04342 63.3833 6.64783 62.5496 6.51008C61.7158 6.37234 60.8599 6.49938 60.1021 6.87333L52.908 10.4704L50.3617 2.83166C50.0928 2.03542 49.5824 1.34281 48.9014 0.850225C48.2205 0.357636 47.403 0.0895682 46.5626 0.0833265H34.4376C33.5902 0.0811393 32.7637 0.345303 32.0747 0.838479C31.3857 1.33166 30.8691 2.0289 30.598 2.83166L28.0517 10.4704L20.8576 6.87333C20.1045 6.50869 19.2569 6.38673 18.4316 6.52427C17.6064 6.66182 16.8441 7.05209 16.2501 7.64124L7.6413 16.25C7.04348 16.8472 6.64789 17.6168 6.51015 18.4505C6.3724 19.2842 6.49944 20.1401 6.87339 20.8979L10.4705 28.0921L2.83172 30.6383C2.03548 30.9072 1.34287 31.4177 0.850286 32.0986C0.357697 32.7795 0.0896292 33.5971 0.0833875 34.4375V46.5625C0.0812003 47.4098 0.345364 48.2364 0.838541 48.9254C1.33172 49.6144 2.02896 50.1309 2.83172 50.4021L10.4705 52.9483L6.87339 60.1425C6.50875 60.8955 6.38679 61.7431 6.52433 62.5684C6.66188 63.3937 7.05215 64.1559 7.6413 64.75L16.2501 73.3587C16.8473 73.9566 17.6168 74.3522 18.4506 74.4899C19.2843 74.6277 20.1402 74.5006 20.898 74.1267L28.0921 70.5296L30.6384 78.1683C30.9095 78.9711 31.4261 79.6683 32.1151 80.1615C32.8041 80.6547 33.6307 80.9189 34.478 80.9167H46.603C47.4503 80.9189 48.2769 80.6547 48.9658 80.1615C49.6548 79.6683 50.1714 78.9711 50.4426 78.1683L52.9888 70.5296L60.183 74.1267C60.9312 74.4821 61.7705 74.5991 62.5874 74.4617C63.4043 74.3244 64.1592 73.9393 64.7501 73.3587L73.3588 64.75C73.9566 64.1528 74.3522 63.3832 74.49 62.5495C74.6277 61.7158 74.5007 60.8599 74.1267 60.1021L70.5296 52.9079L78.1684 50.3617C78.9646 50.0927 79.6572 49.5823 80.1498 48.9014C80.6424 48.2204 80.9105 47.4029 80.9167 46.5625V34.4375C80.9189 33.5902 80.6548 32.7636 80.1616 32.0746C79.6684 31.3856 78.9712 30.8691 78.1684 30.5979ZM72.8334 43.6525L67.9834 45.2692C66.8681 45.6309 65.8449 46.231 64.9847 47.0277C64.1245 47.8244 63.4479 48.7987 63.0019 49.883C62.5558 50.9674 62.351 52.1357 62.4017 53.3071C62.4523 54.4785 62.7571 55.6249 63.2951 56.6667L65.5988 61.2742L61.153 65.72L56.6667 63.295C55.6303 62.7786 54.4949 62.491 53.3376 62.4515C52.1803 62.412 51.0281 62.6217 49.9588 63.0662C48.8896 63.5108 47.9284 64.1799 47.1402 65.0282C46.352 65.8766 45.7553 66.8843 45.3905 67.9833L43.7738 72.8333H37.3476L35.7309 67.9833C35.3691 66.8681 34.7691 65.8448 33.9724 64.9846C33.1756 64.1244 32.2013 63.4479 31.117 63.0018C30.0327 62.5558 28.8643 62.351 27.6929 62.4016C26.5215 62.4522 25.3752 62.7571 24.3334 63.295L19.7259 65.5987L15.2801 61.1529L17.7051 56.6667C18.243 55.6249 18.5478 54.4785 18.5984 53.3071C18.6491 52.1357 18.4443 50.9674 17.9982 49.883C17.5522 48.7987 16.8756 47.8244 16.0154 47.0277C15.1552 46.231 14.132 45.6309 13.0167 45.2692L8.16672 43.6525V37.3475L13.0167 35.7308C14.132 35.3691 15.1552 34.769 16.0154 33.9723C16.8756 33.1756 17.5522 32.2013 17.9982 31.1169C18.4443 30.0326 18.6491 28.8642 18.5984 27.6929C18.5478 26.5215 18.243 25.3751 17.7051 24.3333L15.4013 19.8471L19.8471 15.4012L24.3334 17.705C25.3752 18.2429 26.5215 18.5478 27.6929 18.5984C28.8643 18.649 30.0327 18.4442 31.117 17.9982C32.2013 17.5521 33.1756 16.8756 33.9724 16.0154C34.7691 15.1552 35.3691 14.1319 35.7309 13.0167L37.3476 8.16666H43.6526L45.2692 13.0167C45.631 14.1319 46.231 15.1552 47.0278 16.0154C47.8245 16.8756 48.7988 17.5521 49.8831 17.9982C50.9674 18.4442 52.1358 18.649 53.3072 18.5984C54.4786 18.5478 55.6249 18.2429 56.6667 17.705L61.2742 15.4012L65.7201 19.8471L63.2951 24.3333C62.7787 25.3698 62.491 26.5051 62.4516 27.6624C62.4121 28.8197 62.6217 29.972 63.0663 31.0412C63.5108 32.1104 64.1799 33.0717 65.0283 33.8599C65.8766 34.648 66.8844 35.2447 67.9834 35.6096L72.8334 37.2262V43.6525ZM40.5001 24.3333C37.3026 24.3333 34.1769 25.2815 31.5183 27.0579C28.8597 28.8343 26.7876 31.3592 25.564 34.3133C24.3404 37.2673 24.0202 40.5179 24.644 43.654C25.2678 46.79 26.8075 49.6706 29.0685 51.9316C31.3294 54.1925 34.2101 55.7322 37.3461 56.356C40.4821 56.9798 43.7327 56.6597 46.6868 55.436C49.6408 54.2124 52.1657 52.1403 53.9421 49.4817C55.7186 46.8231 56.6667 43.6975 56.6667 40.5C56.6667 36.2123 54.9635 32.1003 51.9316 29.0684C48.8998 26.0366 44.7877 24.3333 40.5001 24.3333V24.3333ZM40.5001 48.5833C38.9013 48.5833 37.3385 48.1092 36.0092 47.221C34.6799 46.3328 33.6438 45.0704 33.032 43.5934C32.4202 42.1163 32.2601 40.491 32.572 38.923C32.8839 37.355 33.6538 35.9147 34.7843 34.7842C35.9148 33.6537 37.3551 32.8839 38.9231 32.572C40.4911 32.2601 42.1164 32.4202 43.5934 33.032C45.0704 33.6438 46.3329 34.6798 47.2211 36.0091C48.1093 37.3384 48.5834 38.9013 48.5834 40.5C48.5834 42.6438 47.7318 44.6999 46.2158 46.2158C44.6999 47.7317 42.6439 48.5833 40.5001 48.5833Z" fill="white"/>
</svg>
