<svg width="15" height="15" viewBox="0 0 15 15" fill="none" xmlns="http://www.w3.org/2000/svg">
<path fill-rule="evenodd" clip-rule="evenodd" d="M14.8994 0.100667C14.9708 0.172095 15.0142 0.284724 14.9958 0.350889C14.9571 0.489759 9.18415 14.4394 9.05242 14.7123C8.90903 15.0091 8.72791 15.0809 8.5631 14.9061C8.48565 14.824 7.92288 13.4542 7.3125 11.8621C6.70213 10.27 6.16446 8.92918 6.1177 8.88256C6.07093 8.83595 4.73004 8.29844 3.13794 7.68815C1.54585 7.07785 0.176008 6.51501 0.0939035 6.43734C-0.0808325 6.27215 -0.00917912 6.0911 0.287736 5.94765C0.561268 5.81547 14.5107 0.042623 14.6492 0.00420248C14.7154 -0.0141431 14.828 0.0293148 14.8994 0.100667Z" fill="#DEAB14"/>
</svg>
