<svg width="41" height="41" viewBox="0 0 41 41" fill="none" xmlns="http://www.w3.org/2000/svg">
<circle cx="20.5" cy="20.5" r="20.5" fill="white"/>
<g clip-path="url(#clip0_329_59)">
<path d="M28.4204 20.4477C28.4204 19.7792 28.3665 19.2914 28.2498 18.7855H20.6616V21.8027H25.1157C25.026 22.5525 24.541 23.6817 23.4634 24.4404L23.4483 24.5414L25.8475 26.4111L26.0138 26.4278C27.5403 25.0096 28.4204 22.9228 28.4204 20.4477" fill="#4285F4"/>
<path d="M20.6616 28.3972C22.8438 28.3972 24.6757 27.6744 26.0138 26.4279L23.4634 24.4405C22.7809 24.9192 21.8649 25.2535 20.6616 25.2535C18.5244 25.2535 16.7104 23.8353 16.0638 21.875L15.969 21.8831L13.4742 23.8253L13.4416 23.9165C14.7706 26.5723 17.5006 28.3972 20.6616 28.3972Z" fill="#34A853"/>
<path d="M16.0638 21.8751C15.8932 21.3692 15.7944 20.8271 15.7944 20.2671C15.7944 19.707 15.8932 19.165 16.0548 18.6591L16.0503 18.5514L13.5242 16.578L13.4416 16.6175C12.8938 17.7196 12.5795 18.9573 12.5795 20.2671C12.5795 21.5769 12.8938 22.8145 13.4416 23.9166L16.0638 21.8751" fill="#FBBC05"/>
<path d="M20.6616 15.2806C22.1792 15.2806 23.2029 15.94 23.7867 16.4911L26.0676 14.2508C24.6668 12.9409 22.8438 12.137 20.6616 12.137C17.5006 12.137 14.7706 13.9617 13.4416 16.6175L16.0548 18.6591C16.7104 16.6989 18.5244 15.2806 20.6616 15.2806" fill="#EB4335"/>
</g>
<defs>
<clipPath id="clip0_329_59">
<rect width="15.8409" height="16.3068" fill="white" transform="translate(12.5795 12.1136)"/>
</clipPath>
</defs>
</svg>
