<svg width="17" height="17" viewBox="0 0 17 17" fill="none" xmlns="http://www.w3.org/2000/svg">
<path d="M16.6016 15.2734L13.4219 12.0938C14.4488 10.7831 15.0047 9.16502 15 7.5C15 6.01664 14.5601 4.5666 13.736 3.33323C12.9119 2.09986 11.7406 1.13856 10.3701 0.570907C8.99968 0.00324965 7.49168 -0.145275 6.03683 0.144114C4.58197 0.433503 3.2456 1.14781 2.1967 2.1967C1.14781 3.2456 0.433503 4.58197 0.144114 6.03683C-0.145275 7.49168 0.00324965 8.99968 0.570907 10.3701C1.13856 11.7406 2.09986 12.9119 3.33323 13.736C4.5666 14.5601 6.01664 15 7.5 15C9.16502 15.0047 10.7831 14.4488 12.0938 13.4219L15.2734 16.6016C15.4504 16.7762 15.6889 16.8741 15.9375 16.8741C16.1861 16.8741 16.4247 16.7762 16.6016 16.6016C16.689 16.5145 16.7583 16.411 16.8056 16.297C16.8529 16.1831 16.8773 16.0609 16.8773 15.9375C16.8773 15.8141 16.8529 15.6919 16.8056 15.578C16.7583 15.464 16.689 15.3605 16.6016 15.2734ZM1.875 7.5C1.875 6.38748 2.2049 5.29995 2.82299 4.37492C3.44107 3.44989 4.31957 2.72892 5.34741 2.30318C6.37524 1.87744 7.50624 1.76604 8.59739 1.98309C9.68853 2.20013 10.6908 2.73586 11.4775 3.52253C12.2641 4.3092 12.7999 5.31148 13.0169 6.40262C13.234 7.49376 13.1226 8.62476 12.6968 9.6526C12.2711 10.6804 11.5501 11.5589 10.6251 12.177C9.70006 12.7951 8.61252 13.125 7.5 13.125C6.0088 13.1229 4.57925 12.5296 3.52481 11.4752C2.47037 10.4208 1.87707 8.99121 1.875 7.5Z" fill="white"/>
</svg>
